<svg id="Layer_1" data-name="Layer 1" xmlns="http://www.w3.org/2000/svg" xmlns:xlink="http://www.w3.org/1999/xlink" viewBox="0 0 745.35 165.87"><defs><clipPath id="clip-path" transform="translate(-25.36 -26.83)"><rect width="792" height="219.53" style="fill:none"/></clipPath></defs><title>enovation-controls-white</title><polygon points="19.43 26.1 77.42 26.1 72.76 43.16 34.73 43.16 31.73 54.11 66.25 54.11 62.02 69.93 27.49 69.93 24.39 81.4 63.05 81.4 58.5 98.45 0 98.45 19.43 26.1" style="fill:#fff"/><g style="clip-path:url(#clip-path)"><path d="M165.59,90.43l-17.45-37.5H129.43L110,125.28h19.95l11.16-41.65,18.83,40.15a120.57,120.57,0,0,1,5.65-33.35" transform="translate(-25.36 -26.83)" style="fill:#fff"/><path d="M205.77,94.17a43,43,0,0,1,43.1-42.58c20.57,0,34.52,14.06,34.52,32.46a43,43,0,0,1-43.1,42.58c-20.57,0-34.52-14.05-34.52-32.45m57.15-8.58c0-9.2-5.58-16-15.81-16-12.61,0-20.88,12.3-20.88,23,0,9.2,5.58,16,15.81,16,12.72,0,20.88-12.3,20.88-23" transform="translate(-25.36 -26.83)" style="fill:#fff"/><polygon points="272.88 26.1 294.8 26.1 298.83 71.58 327.25 26.1 345.37 26.1 301.98 98.97 282.5 98.97 272.88 26.1" style="fill:#fff"/><path d="M405.33,52.42H425l11.26,72.86H415.14l-1.75-12.92H385.48l-8.68,12.92H355Zm6.41,44.34L409.15,76,395.61,96.76Z" transform="translate(-25.36 -26.83)" style="fill:#fff"/><polygon points="454.49 43.67 432.78 43.67 437.54 26.1 500.89 26.1 496.24 43.67 474.54 43.67 459.86 98.45 439.71 98.45 454.49 43.67" style="fill:#fff"/><polygon points="524.97 26.1 545.02 26.1 525.59 98.45 505.54 98.45 524.97 26.1" style="fill:#fff"/><path d="M586.08,94.17a43,43,0,0,1,43.1-42.58c20.57,0,34.52,14.06,34.52,32.46a43,43,0,0,1-43.1,42.58c-20.57,0-34.52-14.05-34.52-32.45m57.16-8.58c0-9.2-5.58-16-15.82-16-12.61,0-20.88,12.3-20.88,23,0,9.2,5.58,16,15.82,16,12.71,0,20.88-12.3,20.88-23" transform="translate(-25.36 -26.83)" style="fill:#fff"/><polygon points="673.07 26.1 691.78 26.1 710.49 66.31 721.34 26.1 741.28 26.1 721.86 98.45 704.28 98.45 684.75 56.8 673.59 98.45 653.64 98.45 673.07 26.1" style="fill:#fff"/><path d="M167.38,174.79s-37.18-99.16,53.79-148c0,0-41,44-53.79,148" transform="translate(-25.36 -26.83)" style="fill:#ee3124"/><path d="M756,136.7c0,1.1-1.19,2-2.65,2H189.57c-1.46,0-2.65-.89-2.65-2s1.18-2,2.65-2H753.39c1.46,0,2.65.89,2.65,2" transform="translate(-25.36 -26.83)" style="fill:#fff"/><path d="M391.63,177.22a20.63,20.63,0,0,1-6.33,11.34q-4.71,4.14-12.63,4.14a22.47,22.47,0,0,1-7.8-1.26,15.12,15.12,0,0,1-5.76-3.69,16.12,16.12,0,0,1-3.57-5.91,23.7,23.7,0,0,1-1.23-7.92,30.33,30.33,0,0,1,1.62-9.93,25.84,25.84,0,0,1,4.65-8.31,22.45,22.45,0,0,1,7.38-5.73,22.2,22.2,0,0,1,9.87-2.13,21.51,21.51,0,0,1,6.45.93,14.92,14.92,0,0,1,5.16,2.76,12.77,12.77,0,0,1,3.45,4.62,15.68,15.68,0,0,1,1.26,6.51h-5.7q0-5-3-7.53a11.5,11.5,0,0,0-7.65-2.49,15.61,15.61,0,0,0-7.83,1.89,17.68,17.68,0,0,0-5.55,4.89,21.37,21.37,0,0,0-3.33,6.84,27.54,27.54,0,0,0-1.11,7.68,19.66,19.66,0,0,0,.78,5.7,12.07,12.07,0,0,0,2.34,4.41,10.57,10.57,0,0,0,3.93,2.85,14.12,14.12,0,0,0,5.61,1,12.73,12.73,0,0,0,8.58-2.82,15.34,15.34,0,0,0,4.68-7.86Z" transform="translate(-25.36 -26.83)" style="fill:#ee3124"/><path d="M409,173.92a30.33,30.33,0,0,1,1.62-9.93,25.84,25.84,0,0,1,4.65-8.31,22.47,22.47,0,0,1,7.38-5.73,22.17,22.17,0,0,1,9.87-2.13,18.35,18.35,0,0,1,7.47,1.47,16.52,16.52,0,0,1,5.64,4,17.62,17.62,0,0,1,3.54,6,22.16,22.16,0,0,1,1.23,7.44,30,30,0,0,1-1.59,9.72,26,26,0,0,1-4.56,8.28,22.28,22.28,0,0,1-7.26,5.76,21.11,21.11,0,0,1-9.63,2.16,22.48,22.48,0,0,1-7.8-1.26,15.09,15.09,0,0,1-5.76-3.69,16.14,16.14,0,0,1-3.57-5.91,23.7,23.7,0,0,1-1.23-7.92m5.7,0a19.67,19.67,0,0,0,.78,5.7,12.09,12.09,0,0,0,2.34,4.41,10.56,10.56,0,0,0,3.93,2.85,14.13,14.13,0,0,0,5.61,1,14.81,14.81,0,0,0,7.5-1.86,17.33,17.33,0,0,0,5.43-4.86,21.82,21.82,0,0,0,3.3-6.78,26.92,26.92,0,0,0,1.11-7.62,19.33,19.33,0,0,0-.78-5.55,12.68,12.68,0,0,0-2.34-4.5,11.35,11.35,0,0,0-3.84-3,11.76,11.76,0,0,0-5.22-1.11,15.61,15.61,0,0,0-7.83,1.89,17.69,17.69,0,0,0-5.55,4.89,21.35,21.35,0,0,0-3.33,6.84,27.46,27.46,0,0,0-1.11,7.68" transform="translate(-25.36 -26.83)" style="fill:#ee3124"/><polygon points="447.81 122.01 453.93 122.01 469.23 157.47 469.35 157.47 476.49 122.01 482.01 122.01 472.95 164.85 466.83 164.85 451.65 129.63 451.53 129.63 444.27 164.85 438.75 164.85 447.81 122.01" style="fill:#ee3124"/><polygon points="531.15 126.81 516.75 126.81 508.71 164.85 503.01 164.85 511.05 126.81 496.65 126.81 497.67 122.01 532.23 122.01 531.15 126.81" style="fill:#ee3124"/><path d="M573.72,148.84h16.5a26.71,26.71,0,0,1,5.25.51,13.18,13.18,0,0,1,4.53,1.77,9.26,9.26,0,0,1,3.15,3.36,10.76,10.76,0,0,1,1.17,5.28,11.94,11.94,0,0,1-2.7,7.59,11.43,11.43,0,0,1-3,2.58,10.43,10.43,0,0,1-3.93,1.35v.12a5.61,5.61,0,0,1,2.31,1.32,6.27,6.27,0,0,1,1.44,2.13,9.65,9.65,0,0,1,.66,2.73,14.85,14.85,0,0,1,0,3.12q-.12,1.44-.36,2.88c-.16,1-.28,1.89-.36,2.79a15.23,15.23,0,0,0,0,2.7,6.86,6.86,0,0,0,.78,2.61h-5.94a12.3,12.3,0,0,1-.48-3.54,25.72,25.72,0,0,1,.6-5.64,13.44,13.44,0,0,0,.09-5.73,4.61,4.61,0,0,0-1.71-2.64,4.49,4.49,0,0,0-2.52-.75H574.2l-3.84,18.3h-5.7Zm1.5,19.74h12.84a13.8,13.8,0,0,0,5.43-.9,9,9,0,0,0,3.21-2.19,6.8,6.8,0,0,0,1.53-2.76,10.29,10.29,0,0,0,.39-2.61,6.49,6.49,0,0,0-.72-3.24,5.43,5.43,0,0,0-1.89-2,7.61,7.61,0,0,0-2.67-1,17.57,17.57,0,0,0-3.12-.27H578.4Z" transform="translate(-25.36 -26.83)" style="fill:#ee3124"/><path d="M619,173.92a30.28,30.28,0,0,1,1.62-9.93,25.84,25.84,0,0,1,4.65-8.31,22.44,22.44,0,0,1,7.38-5.73,22.18,22.18,0,0,1,9.87-2.13,18.35,18.35,0,0,1,7.47,1.47,16.49,16.49,0,0,1,5.64,4,17.62,17.62,0,0,1,3.54,6,22.16,22.16,0,0,1,1.23,7.44,30,30,0,0,1-1.59,9.72,26,26,0,0,1-4.56,8.28,22.28,22.28,0,0,1-7.26,5.76,21.11,21.11,0,0,1-9.63,2.16,22.48,22.48,0,0,1-7.8-1.26,15.09,15.09,0,0,1-5.76-3.69,16.11,16.11,0,0,1-3.57-5.91,23.7,23.7,0,0,1-1.23-7.92m5.7,0a19.6,19.6,0,0,0,.78,5.7,12.06,12.06,0,0,0,2.34,4.41,10.56,10.56,0,0,0,3.93,2.85,14.12,14.12,0,0,0,5.61,1,14.81,14.81,0,0,0,7.5-1.86,17.33,17.33,0,0,0,5.43-4.86,21.86,21.86,0,0,0,3.3-6.78,26.92,26.92,0,0,0,1.11-7.62,19.33,19.33,0,0,0-.78-5.55,12.68,12.68,0,0,0-2.34-4.5,11.36,11.36,0,0,0-3.84-3,11.76,11.76,0,0,0-5.22-1.11,15.6,15.6,0,0,0-7.83,1.89,17.69,17.69,0,0,0-5.55,4.89,21.39,21.39,0,0,0-3.33,6.84,27.54,27.54,0,0,0-1.11,7.68" transform="translate(-25.36 -26.83)" style="fill:#ee3124"/><polygon points="657.74 122.01 663.45 122.01 655.52 160.05 678.15 160.05 677.13 164.85 648.75 164.85 657.74 122.01" style="fill:#ee3124"/><path d="M749.58,161.5a10.73,10.73,0,0,0-.63-4.23,6.63,6.63,0,0,0-2-2.76,7.81,7.81,0,0,0-3.15-1.47,18.22,18.22,0,0,0-4.05-.42,15.08,15.08,0,0,0-3.3.39,11.49,11.49,0,0,0-3.21,1.23,7.66,7.66,0,0,0-2.43,2.16,5.35,5.35,0,0,0-1,3.24,6.06,6.06,0,0,0,.54,2.67,6,6,0,0,0,1.47,1.92,8.15,8.15,0,0,0,2.22,1.35,25.8,25.8,0,0,0,2.73,1l5.76,1.56a27.85,27.85,0,0,1,3.84,1.35,12.18,12.18,0,0,1,3.3,2.1,9.41,9.41,0,0,1,2.31,3.27,12.11,12.11,0,0,1,.87,4.86,10.69,10.69,0,0,1-1.53,5.76,13.45,13.45,0,0,1-3.93,4.08,17.44,17.44,0,0,1-5.37,2.4,23,23,0,0,1-5.85.78,27.23,27.23,0,0,1-7.11-.87,14.32,14.32,0,0,1-5.46-2.73,11.83,11.83,0,0,1-3.42-4.68,14.7,14.7,0,0,1-.87-6.78H725a11.88,11.88,0,0,0,.66,4.86,7.37,7.37,0,0,0,2.31,3.18,9.39,9.39,0,0,0,3.66,1.71,20.58,20.58,0,0,0,4.77.51,16.37,16.37,0,0,0,3.93-.48,10.92,10.92,0,0,0,3.45-1.47,7.8,7.8,0,0,0,2.43-2.55,7.12,7.12,0,0,0,.93-3.72,6.06,6.06,0,0,0-.6-2.79,5.82,5.82,0,0,0-1.65-2,9.73,9.73,0,0,0-2.43-1.35,27.39,27.39,0,0,0-2.94-1L733.74,171a22,22,0,0,1-3.66-1.38A11.09,11.09,0,0,1,727,167.5a10,10,0,0,1-2.1-3.12,11.38,11.38,0,0,1,.6-9.57,12.69,12.69,0,0,1,3.57-3.87,15.91,15.91,0,0,1,5-2.34,21,21,0,0,1,5.67-.78,21.93,21.93,0,0,1,6,.81,14.84,14.84,0,0,1,5,2.46,11.44,11.44,0,0,1,3.39,4.23,13.23,13.23,0,0,1,1.11,6.18Z" transform="translate(-25.36 -26.83)" style="fill:#ee3124"/><path d="M770.71,155.27a6.17,6.17,0,1,1-6.15-6,6,6,0,0,1,6.15,6m-10.8,0a4.65,4.65,0,0,0,4.69,4.8,4.6,4.6,0,0,0,4.58-4.76,4.64,4.64,0,1,0-9.26,0m3.7,3.15h-1.39v-6a12.23,12.23,0,0,1,2.31-.18,3.75,3.75,0,0,1,2.09.44,1.67,1.67,0,0,1,.59,1.32,1.54,1.54,0,0,1-1.24,1.39v.07a1.78,1.78,0,0,1,1.1,1.47,4.59,4.59,0,0,0,.44,1.5H766a5.08,5.08,0,0,1-.48-1.47c-.11-.66-.48-1-1.24-1h-.66Zm0-3.41h.66c.77,0,1.39-.26,1.39-.88s-.4-.92-1.28-.92a3.37,3.37,0,0,0-.77.07Z" transform="translate(-25.36 -26.83)" style="fill:#ee3124"/></g></svg>