<?xml version="1.0" standalone="no"?>
<!DOCTYPE svg PUBLIC "-//W3C//DTD SVG 1.1//EN" "http://www.w3.org/Graphics/SVG/1.1/DTD/svg11.dtd" >
<svg xmlns="http://www.w3.org/2000/svg">
<metadata>Generated by IcoMoon</metadata>
<defs>
<font id="oildrop-icons" horiz-adv-x="1024">
<font-face units-per-em="1024" ascent="960" descent="-64" />
<missing-glyph horiz-adv-x="1024" />
<glyph unicode="&#x20;" horiz-adv-x="512" d="" />
<glyph unicode="&#xe900;" glyph-name="arrow-left" horiz-adv-x="683" d="M113.778 618.667v-341.333c-52.682 20.225-93.553 61.096-113.326 112.444l-0.452 115.112c0 62.838 50.94 113.778 113.778 113.778zM227.556 732.444v-568.889c-52.682 20.225-93.553 61.096-113.326 112.444l-0.452 342.667c0 62.838 50.94 113.778 113.778 113.778zM341.333 846.222v-796.444c-52.682 20.225-93.553 61.096-113.326 112.444l-0.452 570.223c0 62.838 50.94 113.778 113.778 113.778zM455.111 960v-1024c-52.682 20.225-93.553 61.096-113.326 112.444l-0.452 797.778c0 62.838 50.94 113.778 113.778 113.778zM455.111 960h113.778v-1024h-113.778v1024zM568.889 960c62.838 0 113.778-50.94 113.778-113.778v-796.444c0-62.838-50.94-113.778-113.778-113.778v1024z" />
<glyph unicode="&#xe901;" glyph-name="arrow-right" horiz-adv-x="683" d="M568.889 618.667v-341.333c62.838 0 113.778 50.94 113.778 113.778v113.778c0 62.838-50.94 113.778-113.778 113.778zM455.111 732.444c62.838 0 113.778-50.94 113.778-113.778v-341.333c0-62.838-50.94-113.778-113.778-113.778v568.889zM341.333 846.222v-796.444c62.838 0 113.778 50.94 113.778 113.778v568.889c0 62.838-50.94 113.778-113.778 113.778zM227.556 960c62.838 0 113.778-50.94 113.778-113.778v-796.444c0-62.838-50.94-113.778-113.778-113.778v1024zM113.778 960h113.778v-1024h-113.778v1024zM113.778 960v-1024c-52.682 20.225-93.553 61.096-113.326 112.444l-0.452 797.778c0 62.838 50.94 113.778 113.778 113.778z" />
<glyph unicode="&#xe902;" glyph-name="award" d="M977.913 576l20.236-20.229-166.152-166.159v-5.615h-5.609l-223.879-223.899 11.647-11.647-38.146-38.146v-46.305h178.777c7.297 0 13.213-5.916 13.213-13.213v-114.787h-512v114.787c0 7.297 5.916 13.213 13.213 13.213h178.79v46.285l-38.159 38.165 11.647 11.647-223.899 223.899h-5.589v5.596l-166.165 166.179 20.236 20.229h-46.073v249.394c0 3.649 2.958 6.606 6.606 6.606h185.397v121.394c0 3.649 2.958 6.606 6.606 6.606h626.787c3.649 0 6.606-2.958 6.606-6.606v-121.394h185.39c3.649 0 6.606-2.958 6.606-6.606v-249.394h-46.087zM192.003 704h-64.003v-69.407l64.003-63.997v133.404zM704.003 832h-384v-389.404l191.997-191.99 192.010 192.010v389.384zM896 704h-64.003v-133.384l64.003 64.003v69.381z" />
<glyph unicode="&#xe903;" glyph-name="calculator" horiz-adv-x="896" d="M832-64h-768c-35.346 0-64 28.654-64 64v896c0 35.346 28.654 64 64 64h768c35.346 0 64-28.654 64-64v-896c0-35.346-28.654-64-64-64zM768 832h-640v-768h640v768zM192 256h128v-128h-128v128zM192 448h128v-128h-128v128zM128 640h640v-128h-640v128zM384 256h128v-128h-128v128zM384 448h128v-128h-128v128zM576 256h128v-128h-128v128zM576 448h128v-128h-128v128z" />
<glyph unicode="&#xe904;" glyph-name="certificate" horiz-adv-x="895" d="M780.275-64c-7.114 0-12.881 5.767-12.881 12.881v86.512l-14.948-14.967-304.849 253.855-304.882-253.855-14.922 14.935v-86.48c0-7.114-5.767-12.881-12.881-12.881h-114.913v1017.56c0 3.557 2.883 6.44 6.44 6.44h882.314c3.557 0 6.44-2.883 6.44-6.44v-1017.56h-114.92zM767.395 832h-639.594v-658.194l304.933 253.939 14.864-14.845 14.813 14.871 304.959-253.958v658.187zM443.579 544.9l-55.386-30.469c-2.461-1.346-5.392-2.138-8.507-2.138-5.699 0-10.779 2.649-14.076 6.784-2.702 3.329-4.321 7.572-4.321 12.193 0 1.2 0.109 2.375 0.318 3.515l10.55 64.284c0.078 0.434 0.123 0.934 0.123 1.445 0 2.343-0.939 4.466-2.461 6.014l-44.784 45.628c-3.436 3.534-5.555 8.366-5.555 13.692 0 2.128 0.338 4.177 0.964 6.097 1.993 6.663 7.668 11.746 14.667 12.888l62.023 9.424c2.73 0.438 4.97 2.193 6.078 4.581l27.714 58.656c2.895 6.322 9.166 10.634 16.445 10.634s13.55-4.313 16.399-10.522l27.739-58.719c1.127-2.436 3.365-4.19 6.046-4.624l61.963-9.415c7.104-1.16 12.777-6.241 14.779-12.911 0.619-1.909 0.957-3.957 0.957-6.083 0-5.328-2.121-10.161-5.565-13.701l-44.807-45.631c-1.524-1.551-2.464-3.679-2.464-6.027 0-0.505 0.044-1 0.127-1.482l10.568-64.351c0.193-1.024 0.303-2.203 0.303-3.407 0-4.618-1.62-8.858-4.324-12.182-3.285-4.142-8.35-6.806-14.039-6.836-0.023 0-0.044 0-0.066 0-3.111 0-6.031 0.814-8.56 2.241l-55.299 30.424c-1.094 0.589-2.393 0.935-3.774 0.935s-2.68-0.346-3.817-0.956z" />
<glyph unicode="&#xe905;" glyph-name="check" d="M445.44 273.28l-0.64-0.64-156.8 168.32 81.92 87.68 88.32-95.36 193.28 207.36 52.48-56.32v-8.32h7.68l24.32-25.6-274.56-294.4zM512-64c-282.77 0-512 229.23-512 512s229.23 512 512 512c282.77 0 512-229.23 512-512s-229.23-512-512-512zM512 832c-212.077 0-384-171.923-384-384s171.923-384 384-384c212.077 0 384 171.923 384 384s-171.923 384-384 384z" />
<glyph unicode="&#xe906;" glyph-name="envelope" horiz-adv-x="1365" d="M85.333 960c-47.128 0-85.333-38.205-85.333-85.333v-853.333c0-47.128 38.205-85.333 85.333-85.333h1194.667c47.128 0 85.333 38.205 85.333 85.333v853.333c0 47.128-38.205 85.333-85.333 85.333h-1194.667zM170.667 789.333h1024v-682.667h-1024v682.667zM256 789.333l426.667-341.333 426.667 341.333h85.333v-85.333l-512-426.667-512 426.667v85.333h85.333z" />
<glyph unicode="&#xe907;" glyph-name="factory" horiz-adv-x="1070" d="M869.177-64v34.235h167.202v34.082h-167.202v34.082h167.202c-12.616 42.591-26.024 78.079-41.621 112.36-34.491 85.868-83.704 208.289-91.040 280.275h-270.061c-15.131-76.978-32.3-141.728-53.082-204.838l-28.533 22.2c13.908 44.475 49.672 166.744 49.672 199.604v204.953h334.405v-204.953c0-61.44 53.034-193.337 91.854-289.624 28.275-70.304 41.877-104.693 41.877-119.976v-102.4h-200.673zM902.648 618.718h-267.463v-34.082h267.463v34.082zM902.648 550.4h-267.463v-85.282h267.463v85.282zM1033.629 728.759c-2.904-4.279-28.58-41.724-64.038-41.724s-61.287 37.445-64.038 41.724c-4.585 6.878-21.244 26.593-36.375 26.593-18.471-0.326-33.32-15.376-33.32-33.894 0-0.12 0.001-0.24 0.002-0.359v-34.064h-33.471v34.082c0.042 12.622 3.5 24.428 9.497 34.552l-42.968-0.317c-18.541-0.258-33.472-15.348-33.472-33.926 0-0.109 0.001-0.217 0.002-0.325v-34.066h-33.318v34.082c-0.003 0.219-0.004 0.479-0.004 0.738 0 37.048 29.809 67.133 66.751 67.579h100.303c35.611 0 61.287-37.445 64.038-41.724 4.585-6.878 21.244-26.593 36.375-26.593 15.589 0 32.554 20.939 36.222 26.593 2.751 4.279 28.427 41.724 64.038 41.724v-34.082c-15.589 0-32.554-21.091-36.222-26.593zM498.703 899.324c-2.904-4.279-28.58-41.571-64.038-41.571s-61.257 37.292-64.069 41.571c-4.585 6.878-21.137 26.593-36.283 26.593-15.589 0-32.569-20.939-36.268-26.593-2.812-4.279-28.458-41.571-64.023-41.571s-61.134 37.292-64.023 41.571c-4.585 6.878-21.137 26.593-36.268 26.593-18.512-0.198-33.442-15.251-33.442-33.79 0-0.103 0-0.205 0.001-0.308v-34.067h-33.425v34.082c-0.002 0.179-0.003 0.39-0.003 0.601 0 37.102 29.836 67.235 66.823 67.716 35.61 0 61.18-37.444 64.068-41.724 4.585-6.878 21.122-26.593 36.268-26.593 15.589 0 32.569 20.939 36.268 26.593 2.812 4.279 28.458 41.724 64.023 41.724s61.226-37.445 63.977-41.724c4.585-6.878 21.244-26.593 36.375-26.593 15.589 0 32.554 20.939 36.222 26.593 2.751 4.279 28.427 41.724 64.038 41.724v-34.235c-15.589 0-32.554-20.939-36.222-26.593zM167.157 38.4v-34.082h-100.291v34.082h100.291zM300.888 38.4v-34.082h-100.291v34.082h100.291zM434.665 38.4v-34.082h-100.352v34.082h100.352zM568.396 38.4v-34.082h-100.413v34.082h100.413zM66.866 584.635h33.425v-34.235h-33.425v34.235zM100.291 413.918h-33.425v34.082h33.425v-34.082zM66.866 516.318h33.425v-34.082h-33.425v34.082zM167.157 472.148l57.069-58.23h43.237v136.482h33.425v-136.482h33.425v68.318h33.44v-68.318h66.912v-136.482h83.601v-68.318h317.593v-136.482h-33.471v102.4h-768.963v-204.8h534.925v-34.235h-568.351v273.118h100.291v68.318h100.306v112.334l-66.866 68.318v194.866h-100.306v-409.753h-33.425v580.318h167.157v-351.37zM401.194 379.835h-167.172v-102.4h167.172v102.4zM133.731 243.2v-34.082h351.064v34.082h-351.064zM133.731 789.435h-100.306v-34.082h100.306v34.082zM133.731 721.118h-100.306v-34.082h100.306v34.082zM300.888 311.518h-33.425v34.082h33.425v-34.082zM367.754 311.518h-33.44v34.082h33.44v-34.082zM835.859-64h-234.144v102.4h234.144v-102.4zM802.388 4.318h-167.202v-34.082h167.202v34.082z" />
<glyph unicode="&#xe908;" glyph-name="gas-flaring" d="M1024.073-64h-1024.073v31.993h217.41l56.642 56.642 76.727 230.122-56.627 113.24h94.384l57.227 171.681-84.334 84.319h86.645v80.004h128.015v-80.004h86.587l-84.334-84.319 57.227-171.681h94.398l-56.627-113.24 76.727-230.122 56.656-56.642h217.395v-31.993zM310.199 31.993h136.441l-76.785 179.024zM448.044 109.934v130.063h-55.749zM422.224 367.996h25.819v77.414zM544.051 671.993h-64.015v-47.996h64.015v47.996zM585.435 591.989h-146.827l32.007-31.993h82.768zM480.11 527.989v-159.993h64.015v160.022h-64.015zM576.132 445.411v-77.414h25.805zM678.254 335.989h-332.39l32.007-64h268.259zM480.11 239.996v-208.004h64.015v208.033h-64.015zM576.132 239.996v-130.048l55.749 130.048h-55.749zM654.277 211.032l-76.756-179.039h136.353zM729.527 0h-434.937l-31.993-32.007h498.834zM590.438 792.869c-8.215-16.599-13.397-36.030-14.296-56.572l-32.018-0.304c0.877 25.601 7.098 49.548 17.573 71.039 3.184 11.218-3.384 19.966-20.806 39.305-16.692 16.488-29.91 36.451-38.482 58.721-2.009-0.572-3.692-2.357-5.433-4.171-46.431-48.786-65.024-78.512-37.742-105.531 12.998-15.753 20.88-36.147 20.88-58.381 0-0.345-0.002-0.69-0.006-1.034l-16.003 0.052h-15.989c0.002 0.203 0.004 0.444 0.004 0.684 0 13.491-4.275 25.983-11.544 36.196-54.42 53.831 2.938 114.101 37.213 150.117 8.811 8.42 16.713 17.649 23.631 27.612 3.078 5.871 8.472 9.424 14.696 9.424 8.832 0 15.993-7.155 16.004-15.984 0-35.812 18.564-56.336 36.571-76.201 17.437-19.31 37.215-41.194 26.653-72.865-0.316-0.817-0.661-1.51-1.058-2.168z" />
<glyph unicode="&#xe909;" glyph-name="globe" d="M512-64c-282.77 0-512 229.23-512 512s229.23 512 512 512c282.77 0 512-229.23 512-512s-229.23-512-512-512zM512 832c-212.077 0-384-171.923-384-384s171.923-384 384-384c212.077 0 384 171.923 384 384s-171.923 384-384 384zM700.16 217.6l-11.2-7.040-32.512-19.84-19.2-13.44c-12.232-5.942-27.074-11.807-42.38-16.623l-2.42 18.543-5.376 43.52c-1.052 11.553-3.454 22.197-7.067 32.263-5.323 7.778-13.16 14.586-22.425 18.801-8.81 1.688-16.202 5.549-22.051 11.037-5.417 6.379-9.449 17.899-16.233 28.779-6.203 7.467-11.255 16.167-14.718 25.633l-0.194 60.127 6.784 49.92 14.912 10.24 17.6 19.84 12.224 4.48 41.984-8.32h29.824l12.224-24.96 28.416-22.4 17.6-27.52 23.040-8.32h25.6l17.6-20.48 10.816-23.040 4.096-15.36v-26.24l-2.816-16c-17.491-28.646-38.808-52.978-63.613-73.194zM595.456 672l-29.824-16-10.816-30.080-17.664-16h-58.24l-27.136-10.24-1.344-21.12-10.816-17.28-2.752-18.56 5.44-16 6.784-15.36c4.119-4.084 6.669-9.744 6.669-16s-2.55-11.916-6.667-15.998c-0.675-0.044-1.461-0.068-2.253-0.068-8.306 0-15.99 2.664-22.244 7.183-11.528 9.937-24.336 19.818-37.658 29.008-8.149 5.319-15.812 8.821-23.986 11.097l-22.277 8.458-20.352 1.28 1.408 27.52-1.408 23.68-8.128 17.28-23.040 17.28-1.344 18.56 2.816 10.24c55.019 53.068 130 85.763 212.616 85.763 48.14 0 93.687-11.101 134.221-30.882l-2.709-6.241z" />
<glyph unicode="&#xe90a;" glyph-name="heart" horiz-adv-x="1025" d="M1024.758 575.879c0-283.898-512-639.96-512-639.96s-512 356.062-512 639.96c-0.54 28.382 2.419 60.069 0 96.030-10.579 158.68 128.943 288.010 288.002 288.010 91.031 0 171.226-62.004 223.998-128.040 52.772 66.036 132.959 128.040 223.998 128.040 159.067 0 298.581-129.33 288.010-288.010-2.427-35.961 0.524-67.649-0.008-96.030zM896.75 671.909c7.958 87.967-71.632 159.97-160.002 159.97-165.84 0-160.002-127.96-160.002-127.96 0.003-0.214 0.004-0.466 0.004-0.718 0-35.348-28.656-64.004-64.004-64.004s-64.004 28.656-64.004 64.004c0 0.253 0.001 0.505 0.004 0.757s5.837 127.921-159.994 127.921c-88.37 0-167.96-72.003-160.002-159.97 3.274-36.122-2.080-69.261 0.855-96.030h-0.855c3.975 1.048-22.028-188.593 383.282-478.377 0.269 0.174 0.504 0.36 0.719 0.566 0.212-0.211 0.45-0.397 0.706-0.556 405.312 289.774 379.325 479.415 383.292 478.367h-0.855c2.935 26.769-2.411 59.908 0.855 96.030z" />
<glyph unicode="&#xe90b;" glyph-name="lock" horiz-adv-x="768" d="M704 576c0 211.84-108.16 384-320 384s-320-172.16-320-384zM192 576c0 141.44 50.56 256 192 256s192-114.56 192-256zM704-64h-640c-35.346 0-64 28.654-64 64v512c0 35.346 28.654 64 64 64h640c35.346 0 64-28.654 64-64v-512c0-35.346-28.654-64-64-64zM640 448h-512v-384h512v384zM384 384v0c35.346 0 64-28.654 64-64v-160c0-17.673-14.327-32-32-32h-64c-17.673 0-32 14.327-32 32v160c0 35.346 28.654 64 64 64z" />
<glyph unicode="&#xe90c;" glyph-name="map-marker" horiz-adv-x="768" d="M768 576c0 212.077-171.923 384-384 384s-384-171.923-384-384c0-212.096 321.92-640 384-640 60.032 0 384 427.904 384 640zM640 576c0-141.385-114.615-256-256-256s-256 114.615-256 256c0 141.385 114.615 256 256 256s256-114.615 256-256z" />
<glyph unicode="&#xe90d;" glyph-name="mar-marker2" horiz-adv-x="768" d="M384 960c212.077 0 384-171.923 384-384 0-211.84-384-640-384-640s-384 428.16-384 640c0 212.077 171.923 384 384 384zM384 832c-141.385 0-256-114.615-256-256s114.615-256 256-256c141.385 0 256 114.615 256 256s-114.615 256-256 256zM384 704c70.692 0 128-57.308 128-128s-57.308-128-128-128c-70.692 0-128 57.308-128 128s57.308 128 128 128z" />
<glyph unicode="&#xe90e;" glyph-name="meetings" d="M960 192h-155.52c-33.974 55.68-82.39 99.572-140.096 127.146l231.616 0.854v64c-8.676 47.422-43.889 84.778-89.397 96.457-34.322-57.821-95.951-96.275-166.577-96.456l-0.026 128c35.346 0 64 28.654 64 64v192c0 35.346-28.654 64-64 64s-64-28.654-64-64v-88.32c-33.045 37.833-76.653 65.672-126.217 78.953l-1.783 9.367c0 106.039 85.961 192 192 192s192-85.961 192-192v-163.2c114.56-44.8 192-126.080 192-220.8v-128c0-35.346-28.654-64-64-64zM576 512v-163.2c114.56-44.8 192-126.080 192-220.8v-128c0-35.346-28.654-64-64-64h-640c-35.346 0-64 28.654-64 64v128c0 94.72 77.44 176 192 220.8v163.2c0 106.039 85.961 192 192 192s192-85.961 192-192zM218.24 224.64c-46.351-11.862-81.564-49.218-90.126-95.894l-0.114-64.746h512v64c-8.676 47.422-43.889 84.778-89.397 96.457-34.195-57.947-95.9-96.471-166.603-96.471s-132.408 38.525-165.269 95.728zM448 512c0 35.346-28.654 64-64 64s-64-28.654-64-64v-192c0-35.346 28.654-64 64-64s64 28.654 64 64v192z" />
<glyph unicode="&#xe90f;" glyph-name="oil-platform" horiz-adv-x="965" d="M906.386 325.281h-42.715v32.549h28.965l39.79 39.292v42.101h-869.244v-42.086l39.834-39.292h28.994v-32.549h-42.657l-59.173 58.368v88.123h503.472v65.112h398.775v-65.112h33.061v-88.152zM899.511 504.32h-332.8v-32.549h332.8v32.549zM500.59 504.32h-101.815v32.563h101.815v-32.563zM264.016 504.32v32.563h101.844v-32.563h-101.844zM129.185 504.32v32.563h101.829v-32.563h-101.829zM849.92 569.417h-32.914v107.198l-65.975-65.097v-42.101h-33.061v32.563h-621.714v-97.675h-33.002v130.194h66.004v97.66h352.022v-97.66h246.345l65.975 65.112h-141.605v-32.563h-33.061v227.928h-32.914v65.112h32.914v-32.563h230.985v32.563h33.061v-65.112h-33.061v-325.559zM448.366 699.611h-286.179v-65.112h286.179v65.112zM651.995 732.16h141.605l-141.605 139.761v-139.761zM817.006 894.932h-141.751l141.751-139.761v139.761zM327.183 764.738v32.563h32.973v-32.563h-32.973zM261.179 764.738v32.563h33.002v-32.563h-33.002zM393.216 824.218h-165.010v-59.48h-32.987v92.028h65.989v97.675h33.002v-97.675h33.002v32.578h32.973v-32.563h65.975v-92.028h-32.914v59.48zM132.008-31.437c0.17-0.001 0.372-0.002 0.574-0.002 54.093 0 97.994 43.631 98.432 97.62l33.002 0.042c0.957-53.935 44.904-97.29 98.977-97.29s98.020 43.355 98.976 97.2l33.062 0.090c0.957-53.927 44.897-97.275 98.962-97.275s98.006 43.349 98.961 97.186l33.062 0.090c0.413-54.026 44.305-97.662 98.389-97.662 0.227 0 0.454 0.001 0.681 0.002l-0.035-32.563c-0.090 0-0.197 0-0.304 0-49.184 0-92.102 26.826-114.92 66.645-23.626-39.788-66.602-66.572-115.834-66.572s-92.207 26.784-115.151 66.575c-23.627-39.791-66.603-66.575-115.834-66.575s-92.207 26.784-115.151 66.575c-23.495-39.804-66.396-66.617-115.559-66.617-72.319 0-131.086 58.019-132.296 130.049l33.001 0.113c0.463-54.012 44.355-97.618 98.432-97.618 0.202 0 0.403 0.001 0.605 0.002zM165.010 243.888v113.927h665.6v-113.927h-32.914v81.379h-152.722v-81.379h-33.061v81.379h-228.206v-81.379h-32.958v81.379h-152.737v-81.379h-33.002zM709.486 166.005c-23.28-40.442-66.257-67.233-115.493-67.233s-92.213 26.791-115.151 66.59c-23.621-39.799-66.599-66.59-115.834-66.59s-92.213 26.791-115.151 66.59c-23.509-39.823-66.432-66.649-115.62-66.649-0.101 0-0.202 0-0.303 0l0.016 32.563c0.17-0.001 0.372-0.002 0.574-0.002 54.093 0 97.994 43.631 98.432 97.62l33.002 0.042c0.957-53.935 44.904-97.29 98.977-97.29s98.020 43.355 98.976 97.2l33.062 0.090c0.957-53.927 44.897-97.275 98.962-97.275s98.006 43.349 98.961 97.186l33.062 0.090c0.957-53.927 44.897-97.275 98.962-97.275s98.006 43.349 98.961 97.186l33.062 0.090c-1.289-72.091-60.033-130.037-132.31-130.037-49.109 0-91.97 26.751-114.806 66.476z" />
<glyph unicode="&#xe910;" glyph-name="oil-pump" horiz-adv-x="996" d="M834.987-64v64h32.142v-32h96.427v32h32.142v-64h-160.711zM899.271 352h32.142v-352h-32.142v352zM688.071 602.226l-126.72-69.348 209.493-529.835v-35.044h32.142v-32h-610.347v32h32.071v35.086l1.152 2.844 176.725 440.149-338.489-185.131v148.651l562.048 302.393v248.007h101.547l169.387-118.158 34.276-121.842v-313.884l-52.196-26.012zM321.138-32h353.294v23.324l-176.654 113.92-176.654-113.877v-23.296zM497.778 143.317l63.147 40.732-63.147 104.875-63.147-104.875zM418.133 156.587l-63.701-105.671 113.778 73.344zM527.36 124.26l113.778-73.344-63.716 105.671zM256.882-3.044v-28.928h32.114v36.437l208.782 346.667 208.782-346.667v-36.437h32.142v28.971l-205.796 520.377-85.902-47.004zM706.56 822.969v105.060h-48.213v-198.784l107.947 58.041zM738.702 913.294v-72.206l60.444-36.124 53.618 28.814zM873.244 808.491l-776.974-418.005v-75.378l793.899 434.261zM899.271 717.767l-64.284-35.129v-85.76l64.284-96v216.889zM899.271 425.913v17.266l-96.284 144.014v77.881l-86.187-47.090 170.382-198.059zM513.849 400.028h-32.142v32h32.142v-32zM96.27 240.028v-144h-32.114v144h32.114zM160.512-64h-160.597v128h160.597v-128zM128.398 32h-96.356v-64h96.356v64z" />
<glyph unicode="&#xe911;" glyph-name="oil-refinery" d="M1024.073-31.963v-32.037h-1024.073v32.037h31.993v63.927h32.007v576.073h96.022v95.963h320.044v32.037h-32.007v32.037h96.022v31.89h-32.080v32.037h192.029v-32.037h-32.007v-31.89h64.015v-32.037h-224.037v-128h224.037v-32.037h-224.037v-128h224.037v-32.037h-224.037v-128h224.037v-31.89h-224.037v-128h224.037v-32.037h-224.037v-128h256v831.927h31.993v-63.927h64.015v63.927h32.007v-831.927h64v128h-31.993v32.037h31.993v128h-31.993v31.89h31.993v128h-31.993v32.037h31.993v128h-31.993v32.037h31.993v128h-31.993v32.037h96.007v-32.037h-32.007v-128h32.007v-32.037h-32.007v-128h32.007v-32.037h-32.007v-128h32.007v-31.89h-32.007v-128h32.007v-32.037h-32.007v-128h32.007zM576.015 768.073h64v31.89h-64v-31.89zM223.949-31.963h64.015v128h-64.015v-128zM479.949 0.073h-128.015v31.89h128.015v64.073h-32.007v32.037h32.007v128h-32.007v31.89h32.007v128h-32.007v32.037h32.007v128h-32.007v32.037h32.007v63.927h-288.037v-63.927h224.022v-32.037h-320v-544.037h64.015v-31.89h-96.022v-32.037h128.029v128h-32.007v32.037h192.029v-32.037h-32.007v-128h160.022v32.037zM864.007 704h-63.971v-32.037h64.015v32.037zM864.007 640.073h-63.971v-32.037h64.015v32.037zM864.007 576h-63.971v-32.037h64.015v32.037zM864.007 512.073h-63.971v-32.037h64.015v32.037zM864.007 448h-63.971v-32.037h64.015v32.037zM864.007 384.073h-63.971v-32.037h64.015v32.037zM864.007 320h-63.971v-32.037h64.015v32.037zM864.007 256.073h-63.971v-32.037h64.015v32.037zM864.007 192h-63.971v-32.037h64.015v32.037zM864.007 128.073h-63.971v-32.037h64.015v32.037zM864.007 64h-63.971v-32.037h64.015v32.037zM864.007 0.073h-63.971v-32.037h64.015v32.037zM287.92 512.073h32.007v-32.037h-32.007v32.037zM223.905 512.073h32.095v-32.037h-32.007v32.037zM159.905 512.073h32.007v-32.037h-32.007v32.037zM591.96 912.018c-0.025 8.812-7.174 15.945-15.989 15.945 0 0 0 0 0 0h-239.996c0 0 0 0 0 0-8.818 0-15.97-7.132-16.004-15.942v-175.985h-32.007v175.982c0.033 26.496 21.512 47.965 48.009 47.982h240.042c26.496-0.017 47.971-21.487 47.996-47.979v-47.984h-32.007v47.982z" />
<glyph unicode="&#xe912;" glyph-name="phone" horiz-adv-x="768" d="M64 960c-35.346 0-64-28.654-64-64v-896c0-35.346 28.654-64 64-64h640c35.346 0 64 28.654 64 64v896c0 35.346-28.654 64-64 64h-640zM128 832h512v-576h-512v576zM128 256h512v-64h-512v64zM320 128h128v-64h-128v64z" />
<glyph unicode="&#xe913;" glyph-name="quote" d="M960-64h-896c-35.346 0-64 28.654-64 64v896c0 35.346 28.654 64 64 64h640l-128-128h-448v-768h768v448l128 128v-640c0-35.346-28.654-64-64-64zM256 192v192l576 576h64l128-128v-64l-576-576h-192zM544 416l352 352-64 64-352-352zM384 384l-64-64v-64h64l64 64z" />
<glyph unicode="&#xe914;" glyph-name="reply-left" horiz-adv-x="1434" d="M714.752 363.008v-256h-89.088c-0.761-0.014-1.659-0.022-2.559-0.022-30.674 0-59.204 9.181-82.991 24.945l-507.346 343.716c-21.151 11.020-35.346 32.78-35.346 57.856s14.194 46.836 34.986 57.685l508.263 344.235c22.824 14.809 50.734 23.613 80.701 23.613 1.509 0 3.012-0.022 4.511-0.067l-0.22 1.029h89.088v-256s718.848 64.512 718.848-768c0 0-92.16 427.008-718.848 427.008z" />
<glyph unicode="&#xe915;" glyph-name="reply-right" horiz-adv-x="1434" d="M716.8 363.008v-256h89.6c0.752-0.014 1.639-0.022 2.527-0.022 30.481 0 58.816 9.184 82.39 24.937l506.238 343.725c20.989 10.904 35.079 32.478 35.079 57.344s-14.090 46.44-34.722 57.175l-507.135 345.257c-22.633 14.805-50.353 23.613-80.129 23.613-1.494 0-2.983-0.022-4.466-0.066l0.218 1.029h-89.6v-256s-716.8 64.512-716.8-768c0 0 92.16 427.008 716.8 427.008z" />
<glyph unicode="&#xe916;" glyph-name="search" horiz-adv-x="1026" d="M995.955-35.955c-17.41-17.437-41.476-28.224-68.061-28.224s-50.652 10.787-68.060 28.223l-169.642 169.642c-68.68-44.619-152.687-71.15-242.89-71.15-248.618 0-450.163 201.545-450.163 450.163s201.545 450.163 450.163 450.163c248.618 0 450.163-201.545 450.163-450.163 0-90.203-26.531-174.21-72.215-244.643l170.706-167.888c17.437-17.41 28.224-41.476 28.224-68.061s-10.787-50.652-28.223-68.060zM448.727 832.085c-177.18 0-320.812-143.633-320.812-320.812s143.633-320.812 320.812-320.812c177.18 0 320.812 143.633 320.812 320.812s-143.633 320.812-320.812 320.812z" />
<glyph unicode="&#xe917;" glyph-name="thermal-power" horiz-adv-x="1138" d="M728.877-64h-728.877v35.304h35.547v70.607c0 13.848 11.557 51.688 37.66 135.964 41.643 134.372 104.562 337.465 104.562 428.958v194.219c0.028 9.755 7.942 17.652 17.701 17.652 0.029 0 0.057 0 0.086 0h391.099c0.024 0 0.053 0 0.081 0 9.759 0 17.673-7.897 17.7-17.649v-194.189c0-91.494 62.919-294.587 104.562-428.958 26.104-84.277 37.66-122.116 37.66-135.964v-70.607h142.206v35.304h-106.659v35.304h102.888c-7.721 29.257-26.153 86.747-42.894 139.036-42.569 132.974-95.541 298.472-95.541 355.279v105.911h-106.675v35.304h106.675v35.304h-106.675v35.304h124.44c0.024 0 0.053 0 0.081 0 9.753 0 17.664-7.888 17.7-17.632v-194.19c0-51.363 54.256-220.826 93.883-344.584 35.076-109.552 48.339-152.381 48.339-167.416v-52.955h142.222v52.955c-0.569 14.401-33.158 105.228-59.343 178.176-50.062 139.508-82.895 233.212-82.895 263.168v105.927h-106.675v35.304h106.675v35.304h-106.675v35.304h124.457c0.019 0 0.042 0 0.065 0 9.759 0 17.673-7.897 17.7-17.649v-194.189c0-26.104 46.714-156.266 80.815-251.303 42.699-118.979 61.407-172.91 61.407-190.041v-52.955h35.596v-35.304h-408.901zM568.889 783.401h-355.556v-35.32h355.556v35.32zM675.027 167.522c-42.26 136.403-106.138 342.536-106.138 439.345v105.911h-355.556v-105.911c0-96.809-63.878-302.941-106.138-439.345-17.538-56.58-35.645-115.046-36.068-125.578h639.967c-0.358 10.305-18.53 68.901-36.084 125.578zM711.111 6.607h-640v-35.304h639.984v35.304zM337.79 642.137h-35.564v35.304h35.564v-35.304zM408.901 642.137h-35.564v35.304h35.564v-35.304zM480.012 642.137h-35.564v35.304h35.564v-35.304zM832.528 897.097c-2.974-4.405-30.249-43.122-68.088-43.122s-65.016 38.717-68.088 43.122c-4.876 7.103-22.463 27.502-38.571 27.502-16.579 0-34.637-21.683-38.571-27.502-2.991-4.405-30.265-43.122-68.104-43.122s-65.016 38.717-68.088 43.122c-4.876 7.103-22.463 27.502-38.571 27.502-0.024 0-0.053 0-0.082 0-19.53 0-35.374-15.786-35.466-35.295v-35.329h-35.564v35.32c0.139 39.079 31.85 70.705 70.948 70.705 0.052 0 0.103 0 0.155 0 37.831 0 65.008-38.701 68.080-43.106 4.876-7.119 22.479-27.502 38.571-27.502 16.595 0 34.653 21.683 38.587 27.502 2.974 4.405 30.265 43.106 68.088 43.106s65.016-38.701 68.088-43.106c4.876-7.119 22.479-27.502 38.571-27.502 16.579 0 34.653 21.683 38.587 27.502 2.974 4.405 30.249 43.106 68.088 43.106v-35.304c-16.579-0.065-34.653-21.748-38.587-27.567z" />
<glyph unicode="&#xe918;" glyph-name="power-station" horiz-adv-x="1010" d="M752.092-31.982h257.486v-32.018h-1009.577v32.018h257.486l121.149 307.056v182.301l-135.442-137.447h103.842v-31.874h-63.084v-32.018h-31.557v32.018h-31.542v-32.018h-31.557v48.027h0.144c0 0.034 0 0.073 0 0.113 0 4.326 1.71 8.253 4.491 11.142l184.604 187.344v178.695l-135.442-137.303h103.842v-32.018h-63.084v-32.018h-31.456v32.018h-31.542v-32.018h-31.557v48.027h0.144c0 0.034 0 0.073 0 0.113 0 4.326 1.71 8.253 4.491 11.142l186.767 189.507 77.68 220.521c2.201 6.223 8.008 10.612 14.848 10.673h63.106c6.847-0.061 12.654-4.45 14.821-10.562l77.714-220.632 186.786-189.512c2.776-2.883 4.486-6.81 4.486-11.137 0-0.040 0-0.079 0-0.119l0.144 0.006v-48.027h-31.557v32.018h-31.542v-32.018h-31.557v32.018h-63.099v32.018h103.842l-135.428 137.303v-178.695l184.608-187.349c2.776-2.883 4.486-6.81 4.486-11.137 0-0.040 0-0.079 0-0.119l0.144 0.006v-48.027h-31.557v32.018h-31.441v-32.018h-31.557v32.018h-63.099v31.874h103.842l-135.428 137.447v-182.301zM432.445 512.036h144.687l-72.343 73.266zM577.132 704h-144.687l72.343-73.411zM432.445 480.018l72.343-73.411 72.329 73.411h-144.672zM410.134 457.375v-146.821l72.343 73.411zM416.667 272.045l88.122-89.42 88.107 89.42-88.107 89.275zM337.79-31.982h333.983l-166.984 169.321zM291.465-31.982h1.716l189.296 191.964-82.353 83.506zM410.134 534.679l72.343 73.266-72.343 73.411v-146.677zM525.211 927.982h-40.859l-67.598-191.964h176.013zM599.429 681.357l-72.343-73.411 72.343-73.266v146.677zM599.429 457.375l-72.343-73.411 72.343-73.411v146.821zM609.453 243.488l-82.367-83.506 189.296-191.964h1.731z" />
<glyph unicode="&#xe919;" glyph-name="eco-refinery" horiz-adv-x="1086" d="M1069.087-64h-1052.098c-9.392 0.044-16.989 7.668-16.989 17.066 0 0 0 0 0 0v494.933c0.001 1.148 0.114 2.268 0.328 3.352l67.938 358.306c1.571 7.872 8.391 13.733 16.593 13.808h67.887c8.253-0.051 15.114-5.952 16.646-13.763l62.233-328.595 164.243 150.171c3.004 2.75 7.023 4.435 11.435 4.435 9.366 0 16.958-7.592 16.958-16.958 0-0.038 0-0.075 0-0.112v-150.941l192.667 164.042c2.92 2.509 6.747 4.036 10.93 4.036 2.601 0 5.063-0.59 7.261-1.644 5.749-2.747 9.72-8.614 9.72-15.409 0-0.022 0-0.044 0-0.066v-150.944l192.698 164.026c2.92 2.509 6.747 4.036 10.93 4.036 2.601 0 5.063-0.59 7.261-1.644 5.749-2.747 9.72-8.614 9.72-15.409 0-0.022 0-0.044 0-0.066v-150.944l192.683 164.026c2.92 2.509 6.747 4.036 10.93 4.036 2.601 0 5.063-0.59 7.261-1.644 5.758-2.744 9.736-8.615 9.736-15.416 0-0.020 0-0.039 0-0.059v-665.597c0 0 0 0 0 0 0-9.393-7.588-17.014-16.969-17.066zM203.652-29.867v34.133h-169.705v-34.133h169.705zM138.705 789.333h-39.812l-12.924-68.267h65.66zM1052.113 581.927l-192.667-163.98c-2.928-2.508-6.762-4.035-10.952-4.035-2.591 0-5.047 0.584-7.241 1.627-5.748 2.747-9.719 8.614-9.719 15.409 0 0.022 0 0.044 0 0.066v150.912l-192.698-163.98c-2.928-2.508-6.762-4.035-10.952-4.035-2.591 0-5.047 0.584-7.241 1.627-5.748 2.747-9.719 8.614-9.719 15.409 0 0.022 0 0.044 0 0.066v150.912l-192.683-163.98c-2.928-2.508-6.762-4.035-10.952-4.035-2.591 0-5.047 0.584-7.241 1.627-5.748 2.747-9.719 8.614-9.719 15.409 0 0.022 0 0.044 0 0.066v149.113l-152.731-139.636v-367.957h-33.947v373.915l-45.552 240.485h-78.6l-45.552-240.485v-408.048h203.636v-68.267h814.545v611.793zM1018.182 38.4v-34.133h-746.667v34.133h746.667zM831.519 209.067h135.758v-102.4h-135.758v102.4zM865.466 140.8h67.879v34.133h-67.894v-34.133zM831.519 345.6h135.758v-102.4h-135.758v102.4zM865.451 277.333h67.879v34.133h-67.879v-34.133zM661.83 209.067h135.758v-102.4h-135.758v102.4zM695.761 140.8h67.879v34.133h-67.879v-34.133zM661.83 345.6h135.758v-102.4h-135.758v102.4zM695.761 277.333h67.879v34.133h-67.879v-34.133zM492.125 209.067h135.758v-102.4h-135.758v102.4zM526.072 140.8h67.879v34.133h-67.879v-34.133zM492.125 345.6h135.758v-102.4h-135.758v102.4zM526.072 277.333h67.879v34.133h-67.879v-34.133zM322.436 209.067h135.758v-102.4h-135.758v102.4zM356.368 140.8h67.879v34.133h-67.879v-34.133zM322.436 345.6h135.758v-102.4h-135.758v102.4zM356.368 277.333h67.879v34.133h-67.879v-34.133zM101.826 140.8h33.947v-34.133h-33.947v34.133zM101.826 209.067h33.947v-34.133h-33.947v34.133zM101.826 277.333h33.947v-34.133h-33.947v34.133zM101.826 345.6h33.947v-34.133h-33.947v34.133zM540.16 899.351c-2.855-4.267-28.889-41.751-64.993-41.751s-62.154 37.485-65.008 41.751c-4.655 6.873-21.442 26.593-36.817 26.593-15.825 0-33.078-20.961-36.817-26.593-2.855-4.267-28.889-41.751-65.008-41.751s-62.061 37.485-64.977 41.751c-4.639 6.873-21.442 26.515-36.833 26.515-18.764-0.114-33.932-15.352-33.932-34.133 0 0 0 0 0-0.001v-34.133h-33.947v34.133c0 0.037 0 0.081 0 0.125 0 37.541 30.358 67.992 67.865 68.142 36.118 0 62.153-37.423 65.007-41.674 4.639-6.796 21.457-26.593 36.817-26.593 15.825 0 33.078 20.976 36.817 26.593 2.87 4.329 28.905 41.674 65.008 41.674s62.138-37.423 64.993-41.674c4.655-6.873 21.442-26.593 36.817-26.593 15.825 0 33.078 20.976 36.817 26.593 2.87 4.329 28.905 41.674 65.008 41.674v-34.133c-15.825 0-33.078-20.899-36.817-26.515z" />
</font>
</defs>
</svg>
